{"title":"Unbroken (2014).BRrip.XviD - Italian English.Ac3.5.1.Sub.Ita.Eng","uid":11888987,"size":2463290597,"categoryP":"video","categoryS":"movies","magnet":"?xt=urn:btih:b5d2b3015c461840623fb8a3b35fdb76fa57fb40&amp;dn=Unbroken+%282014%29.BRrip.XviD+-+Italian+English.Ac3.5.1.Sub.Ita.Eng&amp;tr=udp%3A%2F%2Ftracker.openbittorrent.com%3A80&amp;tr=udp%3A%2F%2Fopen.demonii.com%3A1337&amp;tr=udp%3A%2F%2Ftracker.coppersurfer.tk%3A6969&amp;tr=udp%3A%2F%2Fexodus.desync.com%3A6969","seeders":103,"leechers":37,"uploader":"robbyrs4","files":9,"time":1430931248,"description":"Unbroken (2014).BRrip.XviD - Italian English.Ac3.5.1.Sub.Ita.Eng.MIRCrew\n\n[center]\n\n[color=red][b][img]http://s19.postimg.org/9qdjr7p77/Original_release_2.png[/img]\n\n[u]NO FOUND ONLY ORIGINAL RELEASE[/u]\n\nUnbroken (2014)\n\n[img]http://s13.postimg.org/xgfxtedmf/unbroken.png[/img]\n\n\n[URL=http://www.imdb.com/title/tt1809398/][IMG]http://www.userlogos.org/files/logos/Sucka/imdb_new.png[/IMG][/URL]  \n\n[img]http://s19.postimg.org/vz5tzn42b/1_scheda.png[/img]\n\nTitolo originale \tUnbroken\nLingua originale \tinglese\nPaese di produzione \tStati Uniti d'America\nAnno \t2014\nDurata \t137 min\nRapporto \t2,35 : 1\nGenere \tdrammatico, azione, biografico, storico, guerra, sportivo\nRegia \tAngelina Jolie\nSoggetto \tLaura Hillenbrand (libro)\nSceneggiatura \tJoel ed Ethan Coen, Richard LaGravenese, William Nicholson\nProduttore \tAngelina Jolie, Matthew Baer, Erwin Stoff, Clayton Townsend\nProduttore esecutivo \tMick Garris\nCasa di produzione \tUniversal Pictures, Legendary Pictures\nDistribuzione (Italia) \tUniversal Pictures\nFotografia \tRoger Deakins\nMontaggio \tTim Squyres\nMusiche \tAlexandre Desplat\nScenografia \tJon Hutman\nCostumi \tLouise Frogley\nTrucco \tShane Thomas\n\n[img]http://s19.postimg.org/q8fnlww2b/1_cast.png[/img]\n\n\n    Jack O'Connell: Louis &quot;Louie&quot; Zamperini\n    Domhnall Gleeson: Russell Allen &quot;Phil&quot; Phillips\n    Garrett Hedlund: John Fitzgerald\n    Jai Courtney: Hugh &quot;Cup&quot; Cuppernell\n    Alex Russell: Pete Zamperini\n    Maddalena Ischiale: Louise Zamperini\n    Finn Wittrock: Francis &quot;Mac&quot; McNamara\n    Spencer Lofranco: Harry Brooks\n    Luke Treadaway: Miller\n    Vincenzo Amato: Anthony Zamperini\n    Jordan Patrick Smith: Cliff\n    Miyavi: Mutsushiro &quot;The Bird&quot; Watanabe\n    C.J. Valleroy: Louis Zamperini da giovane\n    John D'Leo: Pete Zamperini da giovane\n\n  \n[img]http://s19.postimg.org/okgi79i6r/1_trama.png[/img]. \n\nIl film si apre mostrando Louis &quot;Louie&quot; Zamperini come bombardiere dell'aviazione nella seconda guerra mondiale durante i bombardamenti dell' isola giapponese di Nauru nel 1943 . L'aereo tuttavia viene gravemente danneggiato durante l'operazione; il pilota, Phil, tuttavia riesce a portare l'aereo all' arresto alla fine della pista grazie ad un pneumatico...........\n\n[img]http://s19.postimg.org/fzn6g380j/1_story.png[/img]\n\nAfter a near-fatal plane crash in WWII, Olympian Louis Zamperini spends a harrowing 47 days in a raft with two fellow crewmen before he's caught by the Japanese navy and sent to a prisoner-of-war camp.....\n\n[url=http://extraimago.com/image/2AR][img]http://extraimago.com/images/2015/05/06/vlcsnap-2015-05-06-16h44m34s201.th.png[/img][/url] [url=http://extraimago.com/image/2Am][img]http://extraimago.com/images/2015/05/06/vlcsnap-2015-05-06-16h44m39s242.th.png[/img][/url] [url=http://extraimago.com/image/2Ai][img]http://extraimago.com/images/2015/05/06/vlcsnap-2015-05-06-16h44m43s32.th.png[/img][/url] [url=http://extraimago.com/image/2Al][img]http://extraimago.com/images/2015/05/06/vlcsnap-2015-05-06-16h44m51s107.th.png[/img][/url]\n\n[IMG]http://img153.imageshack.us/img153/3158/restateinseedblood.gif[/img]\n\n\n[img]http://imgur.com/lvhU6.gif[/img]\n\n\n[img]http://s19.postimg.org/a2jaz9qvn/1_dati.png[/img]\n\n\n[spoiler]\nGeneral\nComplete name                            : Unbroken (2014).ita.eng.sub.ita.eng.MIRCrewUnbroken (2014).ita.eng.sub.ita.eng.MIRCrew.avi\nFormat                                   : AVI\nFormat/Info                              : Audio Video Interleave\nFormat profile                           : OpenDML\nFile size                                : 2.28 GiB\nDuration                                 : 2h 17mn\nOverall bit rate                         : 2 379 Kbps\nMovie name                               : MIRCrew by robbyrs\nWriting application                      : VirtualDubMod 1.5.10.2 (build 2540/release)\nWriting library                          : VirtualDubMod build 2540/release\n\nVideo\nID                                       : 0\nFormat                                   : MPEG-4 Visual\nFormat profile                           : Simple@L3\nFormat settings, BVOP                    : No\nFormat settings, QPel                    : No\nFormat settings, GMC                     : No warppoints\nFormat settings, Matrix                  : Default (H.263)\nCodec ID                                 : XVID\nCodec ID/Hint                            : XviD\nDuration                                 : 2h 17mn\nBit rate                                 : 1 466 Kbps\nWidth                                    : 720 pixels\nHeight                                   : 300 pixels\nDisplay aspect ratio                     : 2.40:1\nFrame rate                               : 23.976 fps\nColor space                              : YUV\nChroma subsampling                       : 4:2:0\nBit depth                                : 8 bits\nScan type                                : Progressive\nCompression mode                         : Lossy\nBits/(Pixel*Frame)                       : 0.283\nStream size                              : 1.41 GiB (62%)\nWriting library                          : XviD 64\n\nAudio #1\nID                                       : 1\nFormat                                   : AC-3\nFormat/Info                              : Audio Coding 3\nMode extension                           : CM (complete main)\nCodec ID                                 : 2000\nDuration                                 : 2h 17mn\nBit rate mode                            : Constant\nBit rate                                 : 448 Kbps\nChannel(s)                               : 6 channels\nChannel positions                        : Front: L C R, Side: L R, LFE\nSampling rate                            : 48.0 KHz\nBit depth                                : 16 bits\nCompression mode                         : Lossy\nStream size                              : 440 MiB (19%)\nAlignment                                : Split accross interleaves\nInterleave, duration                     : 42 ms (1.00 video frame)\nInterleave, preload duration             : 500 ms\n\nAudio #2\nID                                       : 2\nFormat                                   : AC-3\nFormat/Info                              : Audio Coding 3\nMode extension                           : CM (complete main)\nCodec ID                                 : 2000\nDuration                                 : 2h 17mn\nBit rate mode                            : Constant\nBit rate                                 : 448 Kbps\nChannel(s)                               : 6 channels\nChannel positions                        : Front: L C R, Side: L R, LFE\nSampling rate                            : 48.0 KHz\nBit depth                                : 16 bits\nCompression mode                         : Lossy\nStream size                              : 440 MiB (19%)\nAlignment                                : Split accross interleaves\nInterleave, duration                     : 42 ms (1.00 video frame)\nInterleave, preload duration             : 500 ms\n\n\n\n[/spoiler]\n\n[/color][/b][/center]","torrent":{"xt":"urn:btih:b5d2b3015c461840623fb8a3b35fdb76fa57fb40","amp;dn":"Unbroken+%282014%29.BRrip.XviD+-+Italian+English.Ac3.5.1.Sub.Ita.Eng","amp;tr":["udp%3A%2F%2Ftracker.openbittorrent.com%3A80","udp%3A%2F%2Fopen.demonii.com%3A1337","udp%3A%2F%2Ftracker.coppersurfer.tk%3A6969","udp%3A%2F%2Fexodus.desync.com%3A6969"],"infoHash":"b5d2b3015c461840623fb8a3b35fdb76fa57fb40","infoHashBuffer":{"type":"Buffer","data":[181,210,179,1,92,70,24,64,98,63,184,163,179,95,219,118,250,87,251,64]},"announce":[],"urlList":[]}}